<mxfile host="app.diagrams.net" modified="2021-07-27T16:44:45.939Z" agent="5.0 (Macintosh; Intel Mac OS X 10_15_7) AppleWebKit/537.36 (KHTML, like Gecko) Chrome/91.0.4472.114 Safari/537.36" etag="o3TLLlF7MEyELlP4quL7" version="14.9.2" type="github">
  <diagram id="4ZGvZ0fgoe1KlmU3mvZ7" name="Page-1">
    <mxGraphModel dx="791" dy="493" grid="1" gridSize="10" guides="1" tooltips="1" connect="1" arrows="1" fold="1" page="1" pageScale="1" pageWidth="827" pageHeight="1169" math="0" shadow="0">
      <root>
        <mxCell id="0" />
        <mxCell id="1" parent="0" />
        <mxCell id="xNucGwOiqGYlvezc4-lI-1" value="" style="rounded=0;whiteSpace=wrap;html=1;" vertex="1" parent="1">
          <mxGeometry x="120" y="200" width="40" height="40" as="geometry" />
        </mxCell>
        <mxCell id="xNucGwOiqGYlvezc4-lI-2" value="" style="rounded=0;whiteSpace=wrap;html=1;" vertex="1" parent="1">
          <mxGeometry x="160" y="200" width="40" height="40" as="geometry" />
        </mxCell>
        <mxCell id="xNucGwOiqGYlvezc4-lI-3" value="" style="rounded=0;whiteSpace=wrap;html=1;" vertex="1" parent="1">
          <mxGeometry x="200" y="200" width="40" height="40" as="geometry" />
        </mxCell>
        <mxCell id="xNucGwOiqGYlvezc4-lI-4" value="" style="rounded=0;whiteSpace=wrap;html=1;" vertex="1" parent="1">
          <mxGeometry x="240" y="200" width="40" height="40" as="geometry" />
        </mxCell>
        <mxCell id="xNucGwOiqGYlvezc4-lI-13" value="" style="rounded=0;whiteSpace=wrap;html=1;" vertex="1" parent="1">
          <mxGeometry x="280" y="200" width="40" height="40" as="geometry" />
        </mxCell>
        <mxCell id="xNucGwOiqGYlvezc4-lI-14" value="" style="rounded=0;whiteSpace=wrap;html=1;" vertex="1" parent="1">
          <mxGeometry x="320" y="200" width="40" height="40" as="geometry" />
        </mxCell>
        <mxCell id="xNucGwOiqGYlvezc4-lI-15" value="" style="rounded=0;whiteSpace=wrap;html=1;" vertex="1" parent="1">
          <mxGeometry x="360" y="200" width="40" height="40" as="geometry" />
        </mxCell>
        <mxCell id="xNucGwOiqGYlvezc4-lI-16" value="" style="rounded=0;whiteSpace=wrap;html=1;" vertex="1" parent="1">
          <mxGeometry x="400" y="200" width="40" height="40" as="geometry" />
        </mxCell>
        <mxCell id="xNucGwOiqGYlvezc4-lI-17" value="" style="rounded=0;whiteSpace=wrap;html=1;" vertex="1" parent="1">
          <mxGeometry x="440" y="200" width="40" height="40" as="geometry" />
        </mxCell>
        <mxCell id="xNucGwOiqGYlvezc4-lI-18" value="" style="rounded=0;whiteSpace=wrap;html=1;" vertex="1" parent="1">
          <mxGeometry x="480" y="200" width="40" height="40" as="geometry" />
        </mxCell>
        <mxCell id="xNucGwOiqGYlvezc4-lI-19" value="" style="rounded=0;whiteSpace=wrap;html=1;" vertex="1" parent="1">
          <mxGeometry x="520" y="200" width="40" height="40" as="geometry" />
        </mxCell>
        <mxCell id="xNucGwOiqGYlvezc4-lI-20" value="" style="rounded=0;whiteSpace=wrap;html=1;" vertex="1" parent="1">
          <mxGeometry x="560" y="200" width="40" height="40" as="geometry" />
        </mxCell>
        <mxCell id="xNucGwOiqGYlvezc4-lI-21" value="" style="rounded=0;whiteSpace=wrap;html=1;" vertex="1" parent="1">
          <mxGeometry x="600" y="200" width="40" height="40" as="geometry" />
        </mxCell>
        <mxCell id="xNucGwOiqGYlvezc4-lI-22" value="" style="rounded=0;whiteSpace=wrap;html=1;" vertex="1" parent="1">
          <mxGeometry x="640" y="200" width="40" height="40" as="geometry" />
        </mxCell>
        <mxCell id="xNucGwOiqGYlvezc4-lI-23" value="" style="rounded=0;whiteSpace=wrap;html=1;" vertex="1" parent="1">
          <mxGeometry x="680" y="200" width="40" height="40" as="geometry" />
        </mxCell>
        <mxCell id="xNucGwOiqGYlvezc4-lI-24" value="" style="rounded=0;whiteSpace=wrap;html=1;" vertex="1" parent="1">
          <mxGeometry x="720" y="200" width="40" height="40" as="geometry" />
        </mxCell>
        <mxCell id="xNucGwOiqGYlvezc4-lI-25" value="&lt;span&gt;...&lt;/span&gt;" style="rounded=0;whiteSpace=wrap;html=1;fontStyle=1" vertex="1" parent="1">
          <mxGeometry x="50" y="440" width="40" height="40" as="geometry" />
        </mxCell>
        <mxCell id="xNucGwOiqGYlvezc4-lI-26" value="&lt;span&gt;h&lt;/span&gt;" style="rounded=0;whiteSpace=wrap;html=1;fontStyle=1" vertex="1" parent="1">
          <mxGeometry x="90" y="440" width="40" height="40" as="geometry" />
        </mxCell>
        <mxCell id="xNucGwOiqGYlvezc4-lI-27" value="&lt;span&gt;e&lt;/span&gt;" style="rounded=0;whiteSpace=wrap;html=1;fontStyle=1" vertex="1" parent="1">
          <mxGeometry x="130" y="440" width="40" height="40" as="geometry" />
        </mxCell>
        <mxCell id="xNucGwOiqGYlvezc4-lI-28" value="&lt;span&gt;l&lt;/span&gt;" style="rounded=0;whiteSpace=wrap;html=1;fontStyle=1" vertex="1" parent="1">
          <mxGeometry x="170" y="440" width="40" height="40" as="geometry" />
        </mxCell>
        <mxCell id="xNucGwOiqGYlvezc4-lI-29" value="&lt;span&gt;l&lt;/span&gt;" style="rounded=0;whiteSpace=wrap;html=1;fontStyle=1" vertex="1" parent="1">
          <mxGeometry x="210" y="440" width="40" height="40" as="geometry" />
        </mxCell>
        <mxCell id="xNucGwOiqGYlvezc4-lI-30" value="o" style="rounded=0;whiteSpace=wrap;html=1;fontStyle=1" vertex="1" parent="1">
          <mxGeometry x="250" y="440" width="40" height="40" as="geometry" />
        </mxCell>
        <mxCell id="xNucGwOiqGYlvezc4-lI-31" value="," style="rounded=0;whiteSpace=wrap;html=1;fontStyle=1" vertex="1" parent="1">
          <mxGeometry x="290" y="440" width="40" height="40" as="geometry" />
        </mxCell>
        <mxCell id="xNucGwOiqGYlvezc4-lI-32" value="w" style="rounded=0;whiteSpace=wrap;html=1;fontStyle=1" vertex="1" parent="1">
          <mxGeometry x="330" y="440" width="40" height="40" as="geometry" />
        </mxCell>
        <mxCell id="xNucGwOiqGYlvezc4-lI-33" value="o" style="rounded=0;whiteSpace=wrap;html=1;fontStyle=1" vertex="1" parent="1">
          <mxGeometry x="370" y="440" width="40" height="40" as="geometry" />
        </mxCell>
        <mxCell id="xNucGwOiqGYlvezc4-lI-34" value="r" style="rounded=0;whiteSpace=wrap;html=1;fontStyle=1" vertex="1" parent="1">
          <mxGeometry x="410" y="440" width="40" height="40" as="geometry" />
        </mxCell>
        <mxCell id="xNucGwOiqGYlvezc4-lI-35" value="l" style="rounded=0;whiteSpace=wrap;html=1;fontStyle=1" vertex="1" parent="1">
          <mxGeometry x="450" y="440" width="40" height="40" as="geometry" />
        </mxCell>
        <mxCell id="xNucGwOiqGYlvezc4-lI-36" value="d" style="rounded=0;whiteSpace=wrap;html=1;fontStyle=1" vertex="1" parent="1">
          <mxGeometry x="490" y="440" width="40" height="40" as="geometry" />
        </mxCell>
        <mxCell id="xNucGwOiqGYlvezc4-lI-37" value="&lt;span&gt;...&lt;/span&gt;" style="rounded=0;whiteSpace=wrap;html=1;fontStyle=1" vertex="1" parent="1">
          <mxGeometry x="530" y="440" width="40" height="40" as="geometry" />
        </mxCell>
        <mxCell id="xNucGwOiqGYlvezc4-lI-40" value="" style="rounded=0;whiteSpace=wrap;html=1;" vertex="1" parent="1">
          <mxGeometry x="650" y="630" width="40" height="40" as="geometry" />
        </mxCell>
        <mxCell id="xNucGwOiqGYlvezc4-lI-41" value="" style="group" vertex="1" connectable="0" parent="1">
          <mxGeometry x="50" y="530" width="70" height="60" as="geometry" />
        </mxCell>
        <mxCell id="xNucGwOiqGYlvezc4-lI-38" value="data:" style="rounded=0;whiteSpace=wrap;html=1;fontStyle=1" vertex="1" parent="xNucGwOiqGYlvezc4-lI-41">
          <mxGeometry width="70" height="30" as="geometry" />
        </mxCell>
        <mxCell id="xNucGwOiqGYlvezc4-lI-39" value="len:12" style="rounded=0;whiteSpace=wrap;html=1;fontStyle=1" vertex="1" parent="xNucGwOiqGYlvezc4-lI-41">
          <mxGeometry y="30" width="70" height="30" as="geometry" />
        </mxCell>
        <mxCell id="xNucGwOiqGYlvezc4-lI-42" value="&lt;b&gt;s&lt;/b&gt;" style="text;html=1;strokeColor=none;fillColor=none;align=center;verticalAlign=middle;whiteSpace=wrap;rounded=0;" vertex="1" parent="1">
          <mxGeometry x="40" y="510" width="40" height="20" as="geometry" />
        </mxCell>
        <mxCell id="xNucGwOiqGYlvezc4-lI-43" value="" style="endArrow=classic;html=1;entryX=0.5;entryY=1;entryDx=0;entryDy=0;noJump=1;anchorPointDirection=0;" edge="1" parent="1" target="xNucGwOiqGYlvezc4-lI-26">
          <mxGeometry width="50" height="50" relative="1" as="geometry">
            <mxPoint x="110" y="545" as="sourcePoint" />
            <mxPoint x="160" y="520" as="targetPoint" />
          </mxGeometry>
        </mxCell>
        <mxCell id="xNucGwOiqGYlvezc4-lI-45" value="" style="group" vertex="1" connectable="0" parent="1">
          <mxGeometry x="190" y="530" width="70" height="60" as="geometry" />
        </mxCell>
        <mxCell id="xNucGwOiqGYlvezc4-lI-46" value="data:" style="rounded=0;whiteSpace=wrap;html=1;fontStyle=1" vertex="1" parent="xNucGwOiqGYlvezc4-lI-45">
          <mxGeometry width="70" height="30" as="geometry" />
        </mxCell>
        <mxCell id="xNucGwOiqGYlvezc4-lI-47" value="len:5" style="rounded=0;whiteSpace=wrap;html=1;fontStyle=1" vertex="1" parent="xNucGwOiqGYlvezc4-lI-45">
          <mxGeometry y="30" width="70" height="30" as="geometry" />
        </mxCell>
        <mxCell id="xNucGwOiqGYlvezc4-lI-48" value="&lt;b&gt;s1&lt;/b&gt;" style="text;html=1;strokeColor=none;fillColor=none;align=center;verticalAlign=middle;whiteSpace=wrap;rounded=0;" vertex="1" parent="1">
          <mxGeometry x="230" y="510" width="40" height="20" as="geometry" />
        </mxCell>
        <mxCell id="xNucGwOiqGYlvezc4-lI-51" value="" style="endArrow=classic;html=1;entryX=0.658;entryY=1.025;entryDx=0;entryDy=0;noJump=1;anchorPointDirection=0;entryPerimeter=0;startFill=1;endFill=1;bendable=0;" edge="1" parent="1" target="xNucGwOiqGYlvezc4-lI-26">
          <mxGeometry width="50" height="50" relative="1" as="geometry">
            <mxPoint x="200" y="545" as="sourcePoint" />
            <mxPoint x="120" y="490" as="targetPoint" />
          </mxGeometry>
        </mxCell>
        <mxCell id="xNucGwOiqGYlvezc4-lI-52" value="" style="group" vertex="1" connectable="0" parent="1">
          <mxGeometry x="320" y="530" width="70" height="60" as="geometry" />
        </mxCell>
        <mxCell id="xNucGwOiqGYlvezc4-lI-53" value="data:" style="rounded=0;whiteSpace=wrap;html=1;fontStyle=1" vertex="1" parent="xNucGwOiqGYlvezc4-lI-52">
          <mxGeometry width="70" height="30" as="geometry" />
        </mxCell>
        <mxCell id="xNucGwOiqGYlvezc4-lI-54" value="len:5" style="rounded=0;whiteSpace=wrap;html=1;fontStyle=1" vertex="1" parent="xNucGwOiqGYlvezc4-lI-52">
          <mxGeometry y="30" width="70" height="30" as="geometry" />
        </mxCell>
        <mxCell id="xNucGwOiqGYlvezc4-lI-55" value="&lt;b&gt;s2&lt;/b&gt;" style="text;html=1;strokeColor=none;fillColor=none;align=center;verticalAlign=middle;whiteSpace=wrap;rounded=0;" vertex="1" parent="1">
          <mxGeometry x="310" y="510" width="40" height="20" as="geometry" />
        </mxCell>
        <mxCell id="xNucGwOiqGYlvezc4-lI-56" value="" style="endArrow=classic;html=1;entryX=0.5;entryY=1;entryDx=0;entryDy=0;" edge="1" parent="1" target="xNucGwOiqGYlvezc4-lI-32">
          <mxGeometry width="50" height="50" relative="1" as="geometry">
            <mxPoint x="380" y="545" as="sourcePoint" />
            <mxPoint x="380" y="490" as="targetPoint" />
          </mxGeometry>
        </mxCell>
      </root>
    </mxGraphModel>
  </diagram>
</mxfile>
